#!OML:ASF Y:\EmotionMaleHayes\Project 1\Capture day 1\Session 1\Male1.ASF
:FULLY-SPECIFIED
:DEGREES
2850
root -14.5247 17.1447 17.3609 1246.23 -74.7196 560.104
lowerback 9.80393 3.70086 -5.65407
upperback 5.90485 4.08327 -2.35666
thorax 0.443239 1.79168 0.334503
lowerneck -24.6331 1.60726 3.9748
upperneck 25.7145 0.10637 1.19062
head 12.6783 0.53688 -0.204149
rclavicle 5.56597e-015 -2.38542e-014
rhumerus 35.2167 16.8984 -37.2597
rradius 39.6226
rwrist -2.14794
rhand -6.42296 -30.3946
rfingers 7.12502
rthumb 19.4257 -59.4443
lclavicle 5.56597e-015 -2.38542e-014
lhumerus 38.5211 -10.9133 34.2679
lradius 37.3991
lwrist 2.31752
lhand -18.6543 -26.066
lfingers 7.12502
lthumb 7.63883 3.77609
rfemur 5.37333 -6.45332 10.1792
rtibia 34.1655
rfoot -9.96479 -4.18797
rtoes 8.30988
lfemur -20.2967 0.112363 -6.99218
ltibia 27.3671
lfoot -9.3793 8.58744
ltoes -13.4166
2851
root -14.6415 17.2041 17.3643 1245.45 -74.1199 560.849
lowerback 9.75368 3.82576 -5.62717
upperback 5.98656 4.25071 -2.35773
thorax 0.550131 1.86912 0.306991
lowerneck -24.7075 1.55683 3.93399
upperneck 25.7854 0.0102852 1.2922
head 12.7206 0.505301 -0.175034
rclavicle 5.56597e-014 -1.27222e-014
rhumerus 34.907 16.5356 -37.3865
rradius 39.5872
rwrist -1.81144
rhand -6.34867 -30.4807
rfingers 7.12502
rthumb 19.4972 -59.5232
lclavicle 5.56597e-014 -1.27222e-014
lhumerus 38.7495 -11.044 34.168
lradius 37.3487
lwrist 2.70796
lhand -18.8956 -25.9625
lfingers 7.12502
lthumb 7.40596 3.88792
rfemur 4.74999 -6.95983 10.5611
rtibia 34.1776
rfoot -10.2619 -3.92247
rtoes 8.24126
lfemur -19.0277 0.219001 -6.62061
ltibia 26.2506
lfoot -9.42626 8.94988
ltoes -11.9137
2852
root -14.7406 17.2574 17.37 1246.23 -74.3532 560.064
lowerback 9.81945 3.75377 -6.13021
upperback 6.07083 4.09907 -2.49063
thorax 0.588124 1.77455 0.460504
lowerneck -24.9514 1.54269 4.0651
upperneck 25.9643 -0.0336387 1.13801
head 12.8405 0.48122 -0.262798
rclavicle -4.37326e-014 -3.65764e-014
rhumerus 34.8772 16.3494 -37.0332
rradius 39.4391
rwrist -1.92261
rhand -6.34877 -30.5067
rfingers 7.12502
rthumb 19.497 -59.5491
lclavicle -4.37326e-014 -3.65764e-014
lhumerus 38.8878 -10.9723 34.2168
lradius 37.4902
lwrist 2.81795
lhand -18.8045 -25.9946
lfingers 7.12502
lthumb 7.49381 3.85267
rfemur 4.26525 -7.93037 10.2426
rtibia 34.1564
rfoot -10.7196 -3.59947
rtoes 9.62422
lfemur -18.272 -0.172107 -7.12496
ltibia 25.4198
lfoot -9.57854 9.14025
ltoes -11.5916
2853
root -14.8202 17.3013 17.3687 1247 -74.5697 559.624
lowerback 9.76476 3.64472 -6.68595
upperback 5.99517 3.91075 -2.57213
thorax 0.522109 1.67045 0.702148
lowerneck -25.0387 1.59757 4.3027
upperneck 26.0959 0.0500128 0.787251
head 12.9122 0.494392 -0.422807
rclavicle -1.59028e-014 9.85972e-014
rhumerus 34.8939 16.1425 -36.7699
rradius 39.2393
rwrist -1.98746
rhand -6.15436 -30.6017
rfingers 7.12502
rthumb 19.684 -59.6251
lclavicle -1.59028e-014 9.85972e-014
lhumerus 38.6214 -10.6467 34.6906
lradius 38.0444
lwrist 2.44184
lhand -18.561 -25.8329
lfingers 7.12502
lthumb 7.72888 4.00581
rfemur 3.30593 -8.9217 10.2631
rtibia 33.9605
rfoot -10.7124 -3.9857
rtoes 8.65643
lfemur -18.1028 -0.265552 -7.47645
ltibia 24.9365
lfoot -9.70438 9.15628
ltoes -12.4769
2854
root -14.9026 17.3409 17.3648 1246.58 -74.5047 560.372
lowerback 9.65458 3.57751 -6.86698
upperback 5.91514 3.81973 -2.55958
thorax 0.492886 1.62507 0.827954
lowerneck -24.8373 1.60839 4.26917
upperneck 26.0405 0.0767345 0.825669
head 12.8502 0.50515 -0.398633
rclavicle -6.36111e-015 3.18055e-015
rhumerus 34.7338 15.8262 -36.7491
rradius 39.1819
rwrist -2.04764
rhand -6.10914 -30.8404
rfingers 7.12502
rthumb 19.7274 -59.8593
lclavicle -6.36111e-015 3.18055e-015
lhumerus 37.9769 -9.96057 35.8479
lradius 39.0085
lwrist 1.23498
lhand -18.2407 -25.6096
lfingers 7.12502
lthumb 8.03806 4.21753
rfemur 2.28466 -9.8617 10.7273
rtibia 33.8188
rfoot -10.5846 -4.54516
rtoes 6.63842
lfemur -17.8077 -0.145502 -7.32443
ltibia 24.4217
lfoot -9.64312 9.27745
ltoes -13.2119
2855
root -14.9937 17.3795 17.3601 1245.94 -74.1958 561.091
lowerback 9.62865 3.60315 -6.94788
upperback 5.90142 3.84908 -2.53103
thorax 0.484262 1.63768 0.899976
lowerneck -24.4039 1.42086 3.48456
upperneck 25.5696 -0.182668 1.91566
head 12.5734 0.454981 0.102009
rclavicle 1.35174e-014 6.20208e-014
rhumerus 34.552 15.5107 -36.7861
rradius 39.1074
rwrist -2.16976
rhand -6.35261 -30.9386
rfingers 7.12502
rthumb 19.4934 -59.9814
lclavicle 1.35174e-014 6.20208e-014
lhumerus 38.3024 -9.9769 35.8913
lradius 38.7056
lwrist 1.30156
lhand -18.3633 -25.8088
lfingers 7.12502
lthumb 7.9197 4.02286
rfemur 1.51591 -10.3293 11.2461
rtibia 33.8213
rfoot -10.9011 -4.53768
rtoes 9.98232
lfemur -17.0723 0.0199074 -7.05251
ltibia 23.6843
lfoot -9.49581 9.65792
ltoes -13.9793
2856
root -15.2335 17.4529 17.3901 1247 -71.4479 558.725
lowerback 9.0266 4.49375 -6.79451
upperback 6.47676 5.07448 -2.76855
thorax 1.37095 2.19952 0.506792
lowerneck -24.3741 1.49347 3.75248
upperneck 25.6329 -0.118575 1.69087
head 12.5936 0.478428 -0.0175533
rclavicle -3.73715e-014 -2.54444e-014
rhumerus 34.3886 15.0879 -36.9782
rradius 38.969
rwrist -1.96568
rhand -6.53572 -30.9168
rfingers 7.12502
rthumb 19.3173 -59.9773
lclavicle -3.73715e-014 -2.54444e-014
lhumerus 38.6969 -10.0165 35.7831
lradius 38.4261
lwrist 1.4578
lhand -18.3803 -26.0185
lfingers 7.12502
lthumb 7.90328 3.81378
rfemur 2.12183 -8.86206 10.8758
rtibia 33.3246
rfoot -10.6583 -3.47477
rtoes 12.0358
lfemur -12.4922 0.259613 -7.21364
ltibia 20.5911
lfoot -9.721 11.808
ltoes -14.0605
2857
root -15.3406 17.4839 17.3945 1246.96 -71.1209 558.609
lowerback 9.0392 4.51176 -6.92461
upperback 6.52089 5.08127 -2.83723
thorax 1.40645 2.19428 0.506727
lowerneck -24.4699 1.52725 3.90671
upperneck 25.815 -0.0910348 1.5118
head 12.6859 0.482893 -0.10627
rclavicle -7.79236e-014 -2.54444e-014
rhumerus 34.3155 14.8543 -36.9581
rradius 38.9285
rwrist -1.90007
rhand -6.57355 -30.9912
rfingers 7.12502
rthumb 19.2809 -60.0554
lclavicle -7.79236e-014 -2.54444e-014
lhumerus 38.9808 -10.0811 35.5354
lradius 38.2296
lwrist 1.6396
lhand -18.4882 -26.1162
lfingers 7.12502
lthumb 7.79916 3.71998
rfemur 1.79182 -8.99396 11.0623
rtibia 32.6907
rfoot -10.7046 -3.56023
rtoes 15.5779
lfemur -11.3056 0.141324 -7.33205
ltibia 19.5376
lfoot -9.65223 12.2155
ltoes -14.0759
2858
root -15.45 17.5134 17.3983 1248.09 -70.7977 557.295
lowerback 8.90866 4.55558 -7.4688
upperback 6.58041 5.10524 -2.95015
thorax 1.50839 2.18065 0.695345
lowerneck -24.2575 1.53676 3.70965
upperneck 25.7596 -0.0217123 1.61434
head 12.6216 0.504441 -0.023441
rclavicle 1.90833e-014 -1.43125e-014
rhumerus 34.3951 14.8171 -36.6927
rradius 38.8661
rwrist -2.18864
rhand -6.60239 -31.2202
rfingers 7.12502
rthumb 19.2532 -60.2871
lclavicle 1.90833e-014 -1.43125e-014
lhumerus 39.1288 -10.1056 35.405
lradius 38.0924
lwrist 1.79726
lhand -18.6533 -26.1639
lfingers 7.12502
lthumb 7.63975 3.67815
rfemur 1.27344 -9.65095 10.7527
rtibia 32.4682
rfoot -10.7897 -3.89694
rtoes 9.45513
lfemur -10.1003 0.00331598 -7.92734
ltibia 18.5039
lfoot -9.77754 12.6245
ltoes -12.1081
2859
root -15.5629 17.54 17.3956 1249.2 -70.2674 555.992
lowerback 8.54344 4.66759 -8.02298
upperback 6.72842 5.24901 -3.07796
thorax 1.82484 2.21502 0.88277
lowerneck -23.838 1.66528 3.6954
upperneck 25.4442 0.194795 1.62999
head 12.415 0.593948 0.0189318
rclavicle -4.45278e-014 -9.54166e-015
rhumerus 34.5375 14.5757 -36.5872
rradius 38.7015
rwrist -2.34023
rhand -6.66482 -31.179
rfingers 7.12502
rthumb 19.1932 -60.2519
lclavicle -4.45278e-014 -9.54166e-015
lhumerus 39.4752 -10.1893 35.0019
lradius 37.9044
lwrist 2.31453
lhand -18.8081 -26.1334
lfingers 7.12502
lthumb 7.49036 3.71397
rfemur 0.736382 -9.50298 10.5965
rtibia 32.2685
rfoot -11.7873 -3.42211
rtoes 13.0029
lfemur -8.83276 0.0492066 -8.43965
ltibia 17.4819
lfoot -9.90265 13.0634
ltoes -10.8105
2860
root -15.4641 17.5086 17.3448 1247.42 -73.1333 559.339
lowerback 9.40835 3.55383 -8.49699
upperback 6.05411 3.65931 -2.79637
thorax 0.715305 1.48148 1.51016
lowerneck -24.1368 1.75103 4.08503
upperneck 25.8629 0.269291 1.17778
head 12.6437 0.608041 -0.202979
rclavicle -2.3059e-014 -3.65764e-014
rhumerus 34.5683 14.3475 -36.5993
rradius 38.5833
rwrist -2.40863
rhand -6.845 -30.9046
rfingers 7.12502
rthumb 19.0199 -59.9946
lclavicle -2.3059e-014 -3.65764e-014
lhumerus 39.7735 -10.3377 34.4604
lradius 37.7831
lwrist 2.86906
lhand -18.8819 -26.1689
lfingers 7.12502
lthumb 7.41915 3.68102
rfemur -1.32269 -11.9875 12.2231
rtibia 31.9914
rfoot -12.3762 -5.65276
rtoes 6.74078
lfemur -12.7029 0.293572 -7.71469
ltibia 19.847
lfoot -9.26749 10.6301
ltoes -12.2349
2861
root -15.5528 17.5299 17.3384 1247.3 -72.8651 559.31
lowerback 9.55017 3.5502 -8.68566
upperback 6.03527 3.6149 -2.84804
thorax 0.615771 1.45624 1.5566
lowerneck -23.9057 1.77358 3.95465
upperneck 25.699 0.245547 1.56287
head 12.5328 0.632925 -0.0401158
rclavicle -9.54166e-015 1.43125e-014
rhumerus 34.5466 14.2301 -36.6193
rradius 38.4802
rwrist -2.50255
rhand -7.11472 -30.7542
rfingers 7.12502
rthumb 18.7605 -59.8695
lclavicle -9.54166e-015 1.43125e-014
lhumerus 39.8127 -10.3737 34.1689
lradius 37.8924
lwrist 2.99896
lhand -18.8981 -26.2319
lfingers 7.12502
lthumb 7.40352 3.61859
rfemur -1.54665 -12.3293 12.3651
rtibia 31.5092
rfoot -12.6005 -5.08162
rtoes 13.102
lfemur -11.9153 0.363184 -7.67968
ltibia 19.4454
lfoot -9.31222 10.7632
ltoes -12.6364
2862
root -15.6398 17.5497 17.3363 1247.66 -72.6099 558.863
lowerback 9.53556 3.55348 -8.92082
upperback 6.07935 3.59383 -2.95996
thorax 0.667735 1.4336 1.57297
lowerneck -23.9097 1.80552 3.98597
upperneck 25.6867 0.24352 1.66889
head 12.5297 0.648874 -0.00526788
rclavicle 7.95139e-016 4.77083e-015
rhumerus 34.7282 13.9433 -36.6191
rradius 38.2461
rwrist -2.43021
rhand -7.09294 -30.8032
rfingers 7.12502
rthumb 18.7814 -59.9165
lclavicle 7.95139e-016 4.77083e-015
lhumerus 40.0172 -10.2897 33.8806
lradius 37.9716
lwrist 3.12568
lhand -18.939 -26.169
lfingers 7.12502
lthumb 7.36408 3.68288
rfemur -2.34448 -12.5461 12.7
rtibia 31.1885
rfoot -12.3593 -5.82319
rtoes 9.54615
lfemur -11.2505 0.381908 -7.80847
ltibia 19.0785
lfoot -9.4056 10.8921
ltoes -13.0926
2863
root -15.734 17.5632 17.3359 1248.04 -72.3507 558.376
lowerback 9.4815 3.55514 -9.12157
upperback 6.08145 3.58111 -3.03197
thorax 0.695599 1.4195 1.61198
lowerneck -23.947 1.78507 3.80313
upperneck 25.8455 0.221998 1.82843
head 12.5996 0.643346 0.0831562
rclavicle -3.18055e-015 -1.90833e-014
rhumerus 34.8244 13.7366 -36.5619
rradius 38.0484
rwrist -2.35792
rhand -6.84969 -31.0304
rfingers 7.12502
rthumb 19.0154 -60.1209
lclavicle -3.18055e-015 -1.90833e-014
lhumerus 40.1275 -10.2033 33.8892
lradius 37.9928
lwrist 2.99813
lhand -18.9795 -26.2475
lfingers 7.12502
lthumb 7.32492 3.60567
rfemur -2.91036 -12.801 12.8599
rtibia 30.7174
rfoot -12.2664 -5.84746
rtoes 9.56633
lfemur -10.3541 0.245931 -7.99427
ltibia 18.3635
lfoot -9.52571 11.1235
ltoes -12.063
